#N canvas 132 183 450 300 12;
#X obj 130 152 netreceive 3000;
#X obj 130 177 route 0 1;
#X obj 130 202 s audio_on_off;
#X obj 159 228 s volume;
#X obj 11 77 phasor~ 440;
#X obj 11 216 *~;
#X obj 307 34 r audio_on_off;
#X obj 307 59 tgl 15 0 empty empty empty 17 7 0 10 #fcfcfc #000000
#000000 0 1;
#X msg 307 85 \; pd dsp \$1 \;;
#X obj 29 106 r volume;
#X obj 29 134 / 100;
#X obj 29 162 pack 0 5;
#X obj 29 189 line~;
#X connect 0 0 1 0;
#X connect 1 0 2 0;
#X connect 1 1 3 0;
#X connect 4 0 5 0;
#X connect 6 0 7 0;
#X connect 7 0 8 0;
#X connect 9 0 10 0;
#X connect 10 0 11 0;
#X connect 11 0 12 0;
#X connect 12 0 5 1;
