#N canvas 1141 327 450 300 12;
#X obj 41 57 bng 15 250 50 0 empty empty empty 17 7 0 10 #fcfcfc #000000
#000000;
#X msg 39 104 connect localhost 13001;
#X floatatom 84 138 5 0 0 0 - - - 0;
#X msg 91 176 send myvar \$1;
#X obj 79 260 netsend;
#X msg 140 130 hey;
#X connect 0 0 1 0;
#X connect 1 0 4 0;
#X connect 2 0 3 0;
#X connect 3 0 4 0;
#X connect 5 0 3 0;
