#N canvas 610 253 450 300 12;
#X obj 57 30 tgl 15 0 empty empty empty 17 7 0 10 #fcfcfc #000000 #000000
0 1;
#X obj 57 50 metro 200;
#X obj 57 75 t b b;
#X obj 57 100 random 3;
#X obj 57 125 * 12;
#X obj 57 175 makenote;
#X obj 57 226 noteout;
#X obj 146 142 hsl 128 15 0 127 0 0 empty empty Note\ Length -2 -8
0 10 #fcfcfc #000000 #000000 0 1;
#X floatatom 141 172 5 0 0 0 - - - 0;
#X obj 139 98 random 127;
#X obj 57 150 + 68;
#X connect 0 0 1 0;
#X connect 1 0 2 0;
#X connect 2 0 3 0;
#X connect 2 1 9 0;
#X connect 3 0 4 0;
#X connect 4 0 10 0;
#X connect 5 0 6 0;
#X connect 5 1 6 1;
#X connect 7 0 5 2;
#X connect 7 0 8 0;
#X connect 9 0 5 1;
#X connect 10 0 5 0;
