#N canvas 0 0 598 392 12;
#X msg 83 29 61 0 60 500 59 500;
#X obj 95 139 list split 2;
#X obj 128 171 unpack f f;
#X obj 291 73 r synth;
#X obj 291 98 t f b;
#X obj 291 126 mtof;
#X obj 291 157 phasor~;
#X obj 291 188 *~ 2;
#X obj 291 217 -~ 1;
#X obj 291 249 *~;
#X obj 290 277 vcf~ 1 1;
#X obj 291 306 *~ 0.35;
#X obj 291 349 dac~;
#X msg 368 125 0 \, 1 1 0 \, 0 400 1;
#X obj 368 159 vline~;
#X obj 368 187 *~;
#X obj 367 218 *~ 600;
#X obj 367 243 +~ 100;
#X obj 75 277 list append;
#X obj 189 279 f;
#X obj 194 207 del;
#X obj 194 238 t b b;
#X obj 189 304 s synth;
#X connect 0 0 1 0;
#X connect 1 0 2 0;
#X connect 1 1 18 1;
#X connect 2 0 19 1;
#X connect 2 1 20 0;
#X connect 3 0 4 0;
#X connect 4 0 5 0;
#X connect 4 1 13 0;
#X connect 5 0 6 0;
#X connect 6 0 7 0;
#X connect 7 0 8 0;
#X connect 8 0 9 0;
#X connect 9 0 10 0;
#X connect 10 0 11 0;
#X connect 11 0 12 0;
#X connect 11 0 12 1;
#X connect 13 0 14 0;
#X connect 14 0 15 0;
#X connect 14 0 15 1;
#X connect 15 0 16 0;
#X connect 15 0 9 1;
#X connect 16 0 17 0;
#X connect 17 0 10 1;
#X connect 18 0 1 0;
#X connect 19 0 22 0;
#X connect 20 0 21 0;
#X connect 21 0 18 0;
#X connect 21 1 19 0;
