#N canvas 73 26 1846 984 12;
#X msg 10 103 44100;
#X obj 11 313 tabplay~ Sample01;
#X obj 10 8 notein;
#X obj 10 74 bng 15 250 50 0 empty empty empty 17 7 0 10 #fcfcfc #000000
#000000;
#X obj 29 75 bng 15 250 50 0 empty empty empty 17 7 0 10 #fcfcfc #000000
#000000;
#X obj 72 74 bng 15 250 50 0 empty empty empty 17 7 0 10 #fcfcfc #000000
#000000;
#X obj 197 74 bng 15 250 50 0 empty empty empty 17 7 0 10 #fcfcfc #000000
#000000;
#X obj 51 74 bng 15 250 50 0 empty empty empty 17 7 0 10 #fcfcfc #000000
#000000;
#X obj 93 75 bng 15 250 50 0 empty empty empty 17 7 0 10 #fcfcfc #000000
#000000;
#X obj 114 75 bng 15 250 50 0 empty empty empty 17 7 0 10 #fcfcfc #000000
#000000;
#X obj 134 75 bng 15 250 50 0 empty empty empty 17 7 0 10 #fcfcfc #000000
#000000;
#X obj 155 75 bng 15 250 50 0 empty empty empty 17 7 0 10 #fcfcfc #000000
#000000;
#X obj 176 74 bng 15 250 50 0 empty empty empty 17 7 0 10 #fcfcfc #000000
#000000;
#X obj 218 73 bng 15 250 50 0 empty empty empty 17 7 0 10 #fcfcfc #000000
#000000;
#X obj 238 74 bng 15 250 50 0 empty empty empty 17 7 0 10 #fcfcfc #000000
#000000;
#X obj 259 73 bng 15 250 50 0 empty empty empty 17 7 0 10 #fcfcfc #000000
#000000;
#X obj 280 73 bng 15 250 50 0 empty empty empty 17 7 0 10 #fcfcfc #000000
#000000;
#X obj 301 72 bng 15 250 50 0 empty empty empty 17 7 0 10 #fcfcfc #000000
#000000;
#X obj 322 73 bng 15 250 50 0 empty empty empty 17 7 0 10 #fcfcfc #000000
#000000;
#X msg 28 128 44100;
#X obj 28 346 tabplay~ Sample01;
#X msg 50 154 44100;
#X obj 50 374 tabplay~ Sample01;
#X msg 71 185 44100;
#X obj 69 404 tabplay~ Sample01;
#X msg 90 214 44100;
#X obj 89 435 tabplay~ Sample01;
#X msg 114 247 44100;
#X obj 110 466 tabplay~ Sample01;
#X obj 10 44 select 0 1 2 3 8 9 10 11 16 17 18 19 24 25 26;
#X msg 134 276 44100;
#X msg 157 309 44100;
#X msg 176 341 44100;
#X msg 197 371 44100;
#X msg 218 402 44100;
#X msg 238 431 44100;
#X msg 259 455 44100;
#X msg 280 484 44100;
#X msg 301 519 44100;
#X msg 322 546 44100;
#X obj 132 497 tabplay~ Sample01;
#X obj 156 527 tabplay~ Sample01;
#X obj 176 556 tabplay~ Sample01;
#X obj 194 585 tabplay~ Sample01;
#X obj 213 618 tabplay~ Sample01;
#X obj 237 648 tabplay~ Sample01;
#X obj 259 681 tabplay~ Sample01;
#X obj 279 714 tabplay~ Sample01;
#X obj 300 746 tabplay~ Sample01;
#X obj 322 776 tabplay~ Sample01;
#X obj 11 797 outlet~;
#X floatatom 81 22 5 0 0 0 - - - 0;
#X connect 0 0 1 0;
#X connect 1 0 50 0;
#X connect 2 0 29 0;
#X connect 2 0 51 0;
#X connect 3 0 0 0;
#X connect 4 0 19 0;
#X connect 5 0 23 0;
#X connect 6 0 33 0;
#X connect 7 0 21 0;
#X connect 8 0 25 0;
#X connect 9 0 27 0;
#X connect 10 0 30 0;
#X connect 11 0 31 0;
#X connect 12 0 32 0;
#X connect 13 0 34 0;
#X connect 14 0 35 0;
#X connect 15 0 36 0;
#X connect 16 0 37 0;
#X connect 17 0 38 0;
#X connect 18 0 39 0;
#X connect 19 0 20 0;
#X connect 20 0 50 0;
#X connect 21 0 22 0;
#X connect 22 0 50 0;
#X connect 23 0 24 0;
#X connect 24 0 50 0;
#X connect 25 0 26 0;
#X connect 26 0 50 0;
#X connect 27 0 28 0;
#X connect 28 0 50 0;
#X connect 29 0 3 0;
#X connect 29 1 4 0;
#X connect 29 2 7 0;
#X connect 29 3 5 0;
#X connect 29 4 8 0;
#X connect 29 5 9 0;
#X connect 29 6 10 0;
#X connect 29 7 11 0;
#X connect 29 8 12 0;
#X connect 29 9 6 0;
#X connect 29 10 13 0;
#X connect 29 11 14 0;
#X connect 29 12 15 0;
#X connect 29 13 16 0;
#X connect 29 14 17 0;
#X connect 29 15 18 0;
#X connect 30 0 40 0;
#X connect 31 0 41 0;
#X connect 32 0 42 0;
#X connect 33 0 43 0;
#X connect 34 0 44 0;
#X connect 35 0 45 0;
#X connect 36 0 46 0;
#X connect 37 0 47 0;
#X connect 38 0 48 0;
#X connect 39 0 49 0;
#X connect 40 0 50 0;
#X connect 41 0 50 0;
#X connect 42 0 50 0;
#X connect 43 0 50 0;
#X connect 44 0 50 0;
#X connect 45 0 50 0;
#X connect 46 0 50 0;
#X connect 47 0 50 0;
#X connect 48 0 50 0;
#X connect 49 0 50 0;
