#N canvas 1279 211 450 300 12;
#X obj 93 32 r time;
#X obj 93 94 mod 8;
#X obj 93 153 select 0 1 2 3 4 5 6 7 8;
#X floatatom 105 62 5 0 0 0 - - - 0;
#X floatatom 104 125 5 0 0 0 - - - 0;
#X obj 111 192 bng 15 250 50 0 empty empty empty 17 7 0 10 #fcfcfc
#000000 #000000;
#X obj 221 193 bng 15 250 50 0 empty empty empty 17 7 0 10 #fcfcfc
#000000 #000000;
#X obj 202 12 tgl 15 0 empty empty empty 17 7 0 10 #fcfcfc #000000
#000000 0 1;
#X obj 202 32 timebase 60 4 0;
#X obj 304 66 s time;
#X connect 0 0 1 0;
#X connect 0 0 3 0;
#X connect 1 0 2 0;
#X connect 1 0 4 0;
#X connect 2 1 5 0;
#X connect 2 7 6 0;
#X connect 7 0 8 0;
#X connect 8 1 9 0;
