#N canvas 73 26 1846 984 12;
#X obj 155 8 tgl 15 0 empty empty empty 17 7 0 10 #fcfcfc #000000 #000000
0 1;
#X obj 257 58 s time;
#X obj 79 44 r time;
#X obj 346 29 r time;
#X obj 346 54 sel 1024;
#X obj 98 185 bng 15 250 50 0 empty empty empty 17 7 0 10 #fcfcfc #000000
#000000;
#X obj 213 181 bng 15 250 50 0 empty empty empty 17 7 0 10 #fcfcfc
#000000 #000000;
#X obj 346 84 bng 15 250 50 0 empty empty empty 17 7 0 10 #fcfcfc #000000
#000000;
#X floatatom 88 71 5 0 0 0 - - - 0;
#X floatatom 88 126 5 0 0 0 - - - 0;
#X obj 79 150 select 0 1 2 3 4 5 6 7 8 9 10 11 12 13 14 15 16;
#X obj 78 98 mod 16;
#X obj 155 28 timebase 40 4 0;
#X obj 50 299 soundfiler;
#X floatatom 50 324 12 0 0 0 - - - 0;
#X obj 50 373 phasor~;
#X obj 50 398 *~;
#X obj 50 475 dac~;
#X text 133 322 Size of sound file;
#X text 31 491 -----------------------------------------------------------
;
#X obj 50 348 expr 44100 / $f1;
#N canvas 0 50 450 250 (subpatch) 0;
#X array Sample01 6.14361e+06 float 2;
#X coords 0 1 6.14361e+06 -1 200 140 1;
#X restore 290 307 graph;
#X obj 50 423 tabread4~ Sample01;
#X msg 49 244 read -resize ~/Desktop/nebulae2/Sample09.wav Sample01
;
#X obj 73 185 bng 15 250 50 0 empty empty empty 17 7 0 10 #fcfcfc #000000
#000000;
#X obj 116 187 bng 15 250 50 0 empty empty empty 17 7 0 10 #fcfcfc
#000000 #000000;
#X obj 134 186 bng 15 250 50 0 empty empty empty 17 7 0 10 #fcfcfc
#000000 #000000;
#X obj 153 187 bng 15 250 50 0 empty empty empty 17 7 0 10 #fcfcfc
#000000 #000000;
#X obj 171 188 bng 15 250 50 0 empty empty empty 17 7 0 10 #fcfcfc
#000000 #000000;
#X obj 192 182 bng 15 250 50 0 empty empty empty 17 7 0 10 #fcfcfc
#000000 #000000;
#X obj 231 182 bng 15 250 50 0 empty empty empty 17 7 0 10 #fcfcfc
#000000 #000000;
#X obj 249 182 bng 15 250 50 0 empty empty empty 17 7 0 10 #fcfcfc
#000000 #000000;
#X obj 267 184 bng 15 250 50 0 empty empty empty 17 7 0 10 #fcfcfc
#000000 #000000;
#X obj 286 180 bng 15 250 50 0 empty empty empty 17 7 0 10 #fcfcfc
#000000 #000000;
#X obj 304 180 bng 15 250 50 0 empty empty empty 17 7 0 10 #fcfcfc
#000000 #000000;
#X obj 73 522 cnv 15 300 180 empty empty Midi\\\ Tests 20 12 0 14 #feffc6
#404040 0;
#X obj 278 573 midiin;
#X floatatom 278 617 5 0 0 0 - - - 0;
#X floatatom 317 644 5 0 0 0 - - - 0;
#X obj 77 563 notein;
#X floatatom 116 665 5 0 0 0 - - - 0;
#X floatatom 96 638 5 0 0 0 - - - 0;
#X floatatom 77 610 5 0 0 0 - - - 0;
#X floatatom 161 617 5 0 0 0 - - - 0;
#X floatatom 214 618 5 0 0 0 - - - 0;
#X obj 161 565 ctlin 53;
#X obj 326 184 bng 15 250 50 0 empty empty empty 17 7 0 10 #fcfcfc
#000000 #000000;
#X obj 348 184 bng 15 250 50 0 empty empty empty 17 7 0 10 #fcfcfc
#000000 #000000;
#X obj 369 186 bng 15 250 50 0 empty empty empty 17 7 0 10 #fcfcfc
#000000 #000000;
#X obj 387 188 bng 15 250 50 0 empty empty empty 17 7 0 10 #fcfcfc
#000000 #000000;
#X obj 409 185 bng 15 250 50 0 empty empty empty 17 7 0 10 #fcfcfc
#000000 #000000;
#X connect 0 0 12 0;
#X connect 2 0 8 0;
#X connect 2 0 11 0;
#X connect 3 0 4 0;
#X connect 4 0 7 0;
#X connect 10 0 24 0;
#X connect 10 1 5 0;
#X connect 10 2 25 0;
#X connect 10 3 26 0;
#X connect 10 4 27 0;
#X connect 10 5 28 0;
#X connect 10 6 29 0;
#X connect 10 7 6 0;
#X connect 10 8 30 0;
#X connect 10 9 31 0;
#X connect 10 10 32 0;
#X connect 10 11 33 0;
#X connect 10 12 34 0;
#X connect 10 13 46 0;
#X connect 10 14 47 0;
#X connect 10 15 48 0;
#X connect 10 16 49 0;
#X connect 10 17 50 0;
#X connect 11 0 9 0;
#X connect 11 0 10 0;
#X connect 12 1 1 0;
#X connect 13 0 14 0;
#X connect 14 0 20 0;
#X connect 15 0 16 0;
#X connect 16 0 22 0;
#X connect 20 0 15 0;
#X connect 22 0 17 0;
#X connect 22 0 17 1;
#X connect 23 0 13 0;
#X connect 36 0 37 0;
#X connect 36 1 38 0;
#X connect 39 0 42 0;
#X connect 39 1 41 0;
#X connect 39 2 40 0;
#X connect 45 0 43 0;
#X connect 45 1 44 0;
