#N canvas 326 136 991 730 12;
#X obj 18 39 r synth;
#N canvas 0 0 450 300 synth 1;
#X obj 291 61 inlet;
#X obj 291 98 t f b;
#X obj 291 126 mtof;
#X obj 291 157 phasor~;
#X obj 291 188 *~ 2;
#X obj 291 217 -~ 1;
#X obj 291 249 *~;
#X obj 290 277 vcf~ 1 1;
#X obj 291 306 *~ 0.35;
#X obj 291 349 dac~;
#X msg 368 125 0 \, 1 1 0 \, 0 400 1;
#X obj 368 159 vline~;
#X obj 368 187 *~;
#X obj 367 218 *~ 600;
#X obj 367 243 +~ 100;
#X connect 0 0 1 0;
#X connect 1 0 2 0;
#X connect 1 1 10 0;
#X connect 2 0 3 0;
#X connect 3 0 4 0;
#X connect 4 0 5 0;
#X connect 5 0 6 0;
#X connect 6 0 7 0;
#X connect 7 0 8 0;
#X connect 8 0 9 0;
#X connect 8 0 9 1;
#X connect 10 0 11 0;
#X connect 11 0 12 0;
#X connect 11 0 12 1;
#X connect 12 0 13 0;
#X connect 12 0 6 1;
#X connect 13 0 14 0;
#X connect 14 0 7 1;
#X restore 18 64 pd synth;
#X obj 153 26 notein;
#X obj 152 68 stripnote;
#X obj 152 93 t f b b;
#X obj 152 160 pack f f;
#X obj 152 229 list append;
#X obj 237 135 timer;
#X obj 278 98 t b b b;
#X obj 278 69 bng 15 250 50 0 empty empty empty 17 7 0 10 #fcfcfc #000000
#000000;
#X text 273 34 start-record;
#X obj 180 193 t 1;
#X msg 325 128 clear;
#X obj 76 349 textfile;
#X obj 11 158 bng 15 250 50 0 empty empty write 17 7 0 10 #fcfcfc #000000
#000000;
#X obj 11 187 t b b;
#X msg 11 236 write ./sq.txt cr;
#X obj 76 272 list append;
#X obj 76 301 list prepend set;
#X obj 522 33 bng 15 250 50 0 empty empty load-playback 17 7 0 10 #fcfcfc
#000000 #000000;
#X obj 522 63 t b b b;
#X obj 522 150 textfile;
#X msg 545 91 rewind;
#X msg 568 119 read ./sq.txt;
#X obj 522 175 list split 2;
#X obj 546 215 unpack f f;
#X obj 445 218 list append;
#X obj 496 279 t b b;
#X obj 613 244 del;
#X obj 528 310 f;
#X obj 528 335 s synth;
#X connect 0 0 1 0;
#X connect 2 0 3 0;
#X connect 2 1 3 1;
#X connect 3 0 4 0;
#X connect 4 0 5 0;
#X connect 4 1 7 0;
#X connect 4 2 7 1;
#X connect 5 0 6 0;
#X connect 6 0 11 0;
#X connect 6 0 17 1;
#X connect 7 0 5 1;
#X connect 8 0 7 0;
#X connect 8 1 6 1;
#X connect 8 2 12 0;
#X connect 9 0 8 0;
#X connect 11 0 6 1;
#X connect 12 0 13 0;
#X connect 14 0 15 0;
#X connect 15 0 16 0;
#X connect 15 1 17 0;
#X connect 16 0 13 0;
#X connect 17 0 18 0;
#X connect 18 0 13 0;
#X connect 19 0 20 0;
#X connect 20 0 21 0;
#X connect 20 1 22 0;
#X connect 20 2 23 0;
#X connect 21 0 24 0;
#X connect 22 0 21 0;
#X connect 23 0 21 0;
#X connect 24 0 25 0;
#X connect 24 1 26 1;
#X connect 25 0 29 1;
#X connect 25 1 28 0;
#X connect 26 0 24 0;
#X connect 27 0 26 0;
#X connect 27 1 29 0;
#X connect 28 0 27 0;
#X connect 29 0 30 0;
