#N canvas 77 80 529 442 12;
#X obj 7 84 inlet control;
#X obj 35 125 sel 0;
#X msg 35 161 0;
#X obj 7 271 metro 125;
#X obj 7 299 t b b;
#X obj 7 353 t b b;
#X obj 7 397 outlet bangs;
#X obj 57 326 del;
#X obj 163 278 *;
#X obj 174 6 loadbang;
#X obj 174 31 t b b b;
#X obj 117 239 t f f;
#X obj 174 241 t b f;
#X obj 117 206 / 4;
#X obj 117 177 /;
#X obj 116 83 inlet bpm;
#X obj 117 124 f \$1;
#X obj 117 150 swap 60000;
#X obj 126 359 f 0;
#X obj 169 358 + 1;
#X obj 126 397 outlet time;
#X obj 202 83 inlet beats;
#X obj 202 122 f \$2;
#X obj 202 147 t b f;
#X obj 297 83 inlet swing percent;
#X obj 296 126 f \$3;
#X obj 296 151 / 100;
#X obj 296 176 + 1;
#X connect 0 0 1 0;
#X connect 0 0 3 0;
#X connect 1 0 2 0;
#X connect 2 0 18 1;
#X connect 3 0 4 0;
#X connect 4 0 5 0;
#X connect 4 1 7 0;
#X connect 5 0 6 0;
#X connect 5 1 18 0;
#X connect 7 0 5 0;
#X connect 8 0 7 1;
#X connect 9 0 10 0;
#X connect 10 0 16 0;
#X connect 10 1 22 0;
#X connect 10 2 25 0;
#X connect 11 0 3 1;
#X connect 11 1 8 0;
#X connect 12 0 8 0;
#X connect 12 1 8 1;
#X connect 13 0 11 0;
#X connect 14 0 13 0;
#X connect 15 0 16 0;
#X connect 16 0 17 0;
#X connect 17 0 14 0;
#X connect 17 1 14 1;
#X connect 18 0 20 0;
#X connect 18 0 19 0;
#X connect 19 0 18 1;
#X connect 21 0 22 0;
#X connect 22 0 23 0;
#X connect 23 0 13 0;
#X connect 23 1 13 1;
#X connect 24 0 25 0;
#X connect 25 0 26 0;
#X connect 26 0 27 0;
#X connect 27 0 12 0;
