#N canvas 589 204 686 389 12;
#X obj 73 99 tgl 15 0 empty empty empty 17 7 0 10 #fcfcfc #000000 #000000
0 1;
#X obj 175 157 s time;
#X obj 78 176 r time;
#X obj 78 221 trigger f f;
#X obj 78 246 / 2;
#X obj 78 271 change;
#X obj 78 296 int;
#X floatatom 78 321 5 0 0 0 - - - 0;
#X floatatom 86 199 5 0 0 0 - - - 0;
#X obj 152 245 / 4;
#X obj 152 270 change;
#X obj 152 295 int;
#X floatatom 152 320 5 0 0 0 - - - 0;
#X obj 73 127 timebase 60 4 0;
#X connect 0 0 13 0;
#X connect 2 0 3 0;
#X connect 2 0 8 0;
#X connect 3 0 4 0;
#X connect 3 1 9 0;
#X connect 4 0 5 0;
#X connect 5 0 6 0;
#X connect 6 0 7 0;
#X connect 9 0 10 0;
#X connect 10 0 11 0;
#X connect 11 0 12 0;
#X connect 13 1 1 0;
