#N canvas 815 200 450 300 12;
#X obj 771 27 vsl 15 128 0 127 0 0 empty empty empty 0 -9 0 10 #fcfcfc
#000000 #000000 0 1;
#X obj 930 27 vsl 15 128 0 127 0 0 empty empty empty 0 -9 0 10 #fcfcfc
#000000 #000000 0 1;
#X obj 1084 28 vsl 15 128 0 127 0 0 empty empty empty 0 -9 0 10 #fcfcfc
#000000 #000000 0 1;
#X obj 1243 28 vsl 15 128 0 127 0 0 empty empty empty 0 -9 0 10 #fcfcfc
#000000 #000000 0 1;
#X obj 39 75 midiin;
#X obj 41 111 midiparse;
#X obj 47 178 list-rot 1;
#X obj 47 203 route 0 1;
#X floatatom 47 231 5 0 0 0 - - - 0;
#X floatatom 77 254 5 0 0 0 - - - 0;
#X obj 234 114 midiparse;
#X connect 4 0 5 0;
#X connect 6 0 7 0;
#X connect 7 0 8 0;
#X connect 7 1 9 0;
