#N canvas 943 129 808 471 12;
#X msg 113 114 start;
#X msg 122 139 stop;
#X obj 42 185 readsf~ 2;
#X msg 31 83 open ~/Music/PinkPanther60.wav;
#X obj 26 260 *~ 0.7;
#X obj 208 232 bng 15 250 50 0 empty empty empty 17 7 0 10 #fcfcfc
#000000 #000000;
#X obj 31 345 dac~;
#X obj 400 233 notein;
#X obj 277 242 midiin;
#X floatatom 276 320 5 0 0 0 - - - 0;
#X obj 279 376 print;
#X floatatom 398 282 5 0 0 0 - - - 0;
#X floatatom 418 316 5 0 0 0 - - - 0;
#X floatatom 458 373 5 0 0 0 - - - 0;
#X obj 402 131 py;
#X connect 0 0 2 0;
#X connect 1 0 2 0;
#X connect 2 0 4 0;
#X connect 2 2 5 0;
#X connect 3 0 2 0;
#X connect 4 0 6 0;
#X connect 7 0 11 0;
#X connect 7 1 12 0;
#X connect 7 2 13 0;
#X connect 8 0 9 0;
#X connect 9 0 10 0;
