#N canvas 0 0 450 541 12;
#X obj 54 75 tgl 15 0 empty empty empty 17 7 0 10 #fcfcfc #000000 #000000
0 1;
#X obj 54 95 timebase 60 4 0;
#X obj 151 139 s time;
#X obj 42 133 r time;
#X obj 42 188 moses 128;
#X floatatom 42 213 5 0 0 0 - - - 0;
#X obj 102 213 moses 256;
#X obj 110 281 - 128;
#X obj 115 348 mod 64;
#X obj 116 408 select 0 16 32 48;
#X obj 117 436 bng 15 250 50 0 empty empty empty 17 7 0 10 #fcfcfc
#000000 #000000;
#X obj 145 434 bng 15 250 50 0 empty empty empty 17 7 0 10 #fcfcfc
#000000 #000000;
#X obj 171 434 bng 15 250 50 0 empty empty empty 17 7 0 10 #fcfcfc
#000000 #000000;
#X obj 203 435 bng 15 250 50 0 empty empty empty 17 7 0 10 #fcfcfc
#000000 #000000;
#X obj 231 438 bng 15 250 50 0 empty empty empty 17 7 0 10 #fcfcfc
#000000 #000000;
#X floatatom 130 245 5 0 0 0 - - - 0;
#X floatatom 136 319 5 0 0 0 - - - 0;
#X floatatom 139 377 5 0 0 0 - - - 0;
#X floatatom 57 162 5 0 0 0 - - - 0;
#X connect 0 0 1 0;
#X connect 1 1 2 0;
#X connect 3 0 4 0;
#X connect 3 0 18 0;
#X connect 4 0 5 0;
#X connect 4 1 6 0;
#X connect 6 0 7 0;
#X connect 6 0 15 0;
#X connect 7 0 8 0;
#X connect 7 0 16 0;
#X connect 8 0 9 0;
#X connect 8 0 17 0;
#X connect 9 0 10 0;
#X connect 9 1 11 0;
#X connect 9 2 12 0;
#X connect 9 3 13 0;
#X connect 9 4 14 0;
