#N canvas 482 188 1241 706 12;
#X obj 155 8 tgl 15 0 empty empty empty 17 7 0 10 #fcfcfc #000000 #000000
0 1;
#X obj 155 28 timebase 60 4 0;
#X obj 257 58 s time;
#X obj 79 44 r time;
#X obj 78 98 mod 8;
#X obj 79 150 select 0 1 2 3 4 5 6 7 8;
#X obj 309 118 r time;
#X obj 309 143 sel 1024;
#X obj 97 181 bng 15 250 50 0 empty empty empty 17 7 0 10 #fcfcfc #000000
#000000;
#X obj 207 180 bng 15 250 50 0 empty empty empty 17 7 0 10 #fcfcfc
#000000 #000000;
#X obj 309 173 bng 15 250 50 0 empty empty empty 17 7 0 10 #fcfcfc
#000000 #000000;
#X floatatom 88 71 5 0 0 0 - - - 0;
#X floatatom 88 126 5 0 0 0 - - - 0;
#X obj 467 11 cnv 15 240 200 empty empty empty 20 12 0 14 #ff0400 #404040
0;
#X obj 520 183 dac~;
#X obj 520 160 tabplay~ grain;
#X msg 518 99 bang;
#X msg 590 65 44100;
#X msg 551 121 380000 1e+06, f 20;
#X text 488 19 EXAMPLE OF Picking start point!!!;
#X obj 38 364 soundfiler;
#X floatatom 38 389 12 0 0 0 - - - 0;
#X obj 38 438 phasor~;
#X obj 38 463 *~;
#X obj 38 488 tabread4~ Sample09;
#X obj 38 540 dac~;
#X text 121 387 Size of sound file;
#X msg 37 309 read -resize ~/Desktop/nebulae2/Sample09.wav Sample09
;
#X obj 38 413 expr 44100 / $f1;
#N canvas 0 50 450 250 (subpatch) 0;
#X array Sample01 6.14361e+06 float 2;
#X coords 0 1 6.14361e+06 -1 200 140 1;
#X restore 272 440 graph;
#X connect 0 0 1 0;
#X connect 1 1 2 0;
#X connect 3 0 4 0;
#X connect 3 0 11 0;
#X connect 4 0 5 0;
#X connect 4 0 12 0;
#X connect 5 1 8 0;
#X connect 5 7 9 0;
#X connect 6 0 7 0;
#X connect 7 0 10 0;
#X connect 15 0 14 0;
#X connect 16 0 15 0;
#X connect 17 0 15 0;
#X connect 18 0 15 0;
#X connect 20 0 21 0;
#X connect 21 0 28 0;
#X connect 22 0 23 0;
#X connect 23 0 24 0;
#X connect 24 0 25 0;
#X connect 24 0 25 1;
#X connect 27 0 20 0;
#X connect 28 0 22 0;
